# Blender v2.83.0 OBJ File: ''
# www.blender.org
mtllib skate.mtl
o Cube_Cube.001
v 0.247360 1.167307 1.000000
v 0.247360 1.167307 -1.000000
v 0.247360 3.167307 -0.007055
v 0.247360 2.167307 -0.503528
v 0.247360 2.167307 -0.507050
v 0.079821 1.167307 1.000000
v 0.079821 3.167307 -0.007055
v 0.079821 1.167307 -1.000000
v 0.079821 2.167307 -0.503528
vt 0.500000 0.188381
vt 0.375000 0.250000
vt 0.500000 0.187941
vt 0.375000 1.000000
vt 0.875000 0.624118
vt 0.875000 0.624118
vt 0.375000 1.000000
vt 0.625000 0.125882
vt 0.625000 0.125882
vt 0.500000 0.187941
vt 0.375000 0.250000
vt 0.375000 0.000000
vn -1.0000 0.0000 0.0000
vn 0.0000 0.4497 0.8932
vn 1.0000 -0.0000 0.0000
vn 0.0000 0.4447 -0.8957
vn 0.0000 -1.0000 0.0000
usemtl Material.003
s off
f 5/1/1 2/2/1 4/3/1
f 1/4/2 3/5/2 7/6/2 6/7/2
f 4/3/1 3/8/1 5/1/1
f 5/1/3 3/5/3 1/4/3 2/2/3
f 7/9/1 9/10/1 8/11/1 6/12/1
f 3/8/4 4/3/4 9/10/4 7/9/4
f 4/3/4 2/2/4 8/11/4 9/10/4
f 2/2/5 1/4/5 6/7/5 8/11/5
